<svg xmlns="http://www.w3.org/2000/svg" viewBox="0 0 91.92 14.94"><g fill="#fff"><path d="m4.21 13.9v-10.47h-3.33v-3h9.79v3h-3.27v10.47z"></path><path d="m14.46 13.9v-13.45h9.28v3h-6.1v1.67h4.24v3h-4.24v2.88h6.1v2.9z"></path><path d="m35.79 14.49-3.94-5h-.85v4.41h-3.26v-13.43h6.44a4.64 4.64 0 0 1 1.88.5 3.87 3.87 0 0 1 .7.49 2.71 2.71 0 0 1 .61.72 3.89 3.89 0 0 1 .43 1 4.78 4.78 0 0 1 .2 1.34v.92a4.77 4.77 0 0 1 -.25 1.56 3.94 3.94 0 0 1 -.57 1.08 3 3 0 0 1 -.77.7 4.88 4.88 0 0 1 -.87.41l2.81 3.81zm-1-9.95a1.78 1.78 0 0 0 -.09-.54 1.16 1.16 0 0 0 -.33-.38 1 1 0 0 0 -.61-.16h-2.76v3h2.81a1.05 1.05 0 0 0 .61-.16 1 1 0 0 0 .28-.3 1.65 1.65 0 0 0 .13-.54z"></path><path d="m50.6 14.49-3.94-5h-.9v4.41h-3.2v-13.43h6.44a4.64 4.64 0 0 1 1.89.5 4.25 4.25 0 0 1 .7.49 2.68 2.68 0 0 1 .6.72 3.89 3.89 0 0 1 .43 1 4.43 4.43 0 0 1 .17 1.33v.92a4.77 4.77 0 0 1 -.23 1.57 3.67 3.67 0 0 1 -.56 1.08 2.85 2.85 0 0 1 -.78.7 4.88 4.88 0 0 1 -.87.41l2.81 3.81zm-1-9.95a1.78 1.78 0 0 0 -.09-.54 1.25 1.25 0 0 0 -.32-.38 1 1 0 0 0 -.62-.16h-2.81v3h2.81a1.09 1.09 0 0 0 .62-.16 1.11 1.11 0 0 0 .32-.3 1.65 1.65 0 0 0 .13-.54z"></path><path d="m76.38 11.05a2.32 2.32 0 0 1 -.21.74 3 3 0 0 1 -.53.81 3.35 3.35 0 0 1 -1 .77 7 7 0 0 1 -1.64.63 11.1 11.1 0 0 1 -2.42.23l-.15-2.92h.7a5.27 5.27 0 0 0 .95-.17 2.72 2.72 0 0 0 .81-.35.7.7 0 0 0 .35-.61v-9.69h3.19v10a3.88 3.88 0 0 1 -.05.56z"></path><path d="m56.85.45v13.45h10.51v-13.45zm7.31 10.6h-4.11v-7.75h4.11z"></path><path d="m80.52.45v13.45h10.48v-13.45zm7.31 10.6h-4.1v-7.75h4.1z"></path></g></svg>